# xmcd
#
# Track frame offsets: 
#        150
#        3280
#        17729
#        20568
#        45411
#        66343
#        69146
#        86309
#        95005
#        114420
#        128944
#        159869
#        182749
#        206143
#        240002
#        270526
#
# Disc length: 3938 seconds
#
# Revision: 0
# Processed by: cddbd v1.5.2PL0 Copyright (c) Steve Scherf et al.
# Submitted via: ExactAudioCopy v0.95a5
#
DISCID=c10f6010
DTITLE=Paille - Mots pour maux
DYEAR=2007
DGENRE=World
TTITLE0=Racinn' (intro)
TTITLE1=Pe pa
TTITLE2=Interlude Radio TNKS
TTITLE3=Week-end Ian Rive feat. Byronn (Di gyal dem styl 3)
TTITLE4=Pleurer feat. Cindy Faustin
TTITLE5=Instant buccolique
TTITLE6=Mwen pa la
TTITLE7=Interlude L'eclate
TTITLE8=Un lion ne meurt pas feat. Straika
TTITLE9=Pa sa pale ba-y
TTITLE10=L'ecole des flammes
TTITLE11=Bal masque live session
TTITLE12=Di gyal dem styl live session
TTITLE13=Pa fe nou chye live session
TTITLE14=Bese zye ba yo live session
TTITLE15=Tour yole la Rive feat. Byronn (Du gyal dem styl 3) (Bonus)
EXTD=
EXTT0=
EXTT1=
EXTT2=
EXTT3=
EXTT4=
EXTT5=
EXTT6=
EXTT7=
EXTT8=
EXTT9=
EXTT10=
EXTT11=
EXTT12=
EXTT13=
EXTT14=
EXTT15=
PLAYORDER=
